<mxfile host="65bd71144e">
    <diagram id="pgwj8AAQiIxtF6I37gr5" name="Page-1">
        <mxGraphModel dx="645" dy="1572" grid="1" gridSize="10" guides="1" tooltips="1" connect="1" arrows="1" fold="1" page="1" pageScale="1" pageWidth="850" pageHeight="1100" math="0" shadow="0">
            <root>
                <mxCell id="0"/>
                <mxCell id="1" parent="0"/>
                <mxCell id="2" value="Menu&lt;br&gt;Abstract class" style="swimlane;fontStyle=1;align=center;verticalAlign=middle;childLayout=stackLayout;horizontal=1;startSize=40;horizontalStack=0;resizeParent=1;resizeParentMax=0;resizeLast=0;collapsible=0;marginBottom=0;html=1;" vertex="1" parent="1">
                    <mxGeometry x="80" y="30" width="150" height="190" as="geometry"/>
                </mxCell>
                <mxCell id="15" value="stereotype property 1" style="text;html=1;align=left;verticalAlign=middle;spacingLeft=4;spacingRight=4;overflow=hidden;rotatable=0;points=[[0,0.5],[1,0.5]];portConstraint=eastwest;noLabel=0;enumerate=0;comic=0;portConstraintRotation=0;rounded=0;glass=0;shadow=0;" vertex="1" parent="2">
                    <mxGeometry y="40" width="150" height="30" as="geometry"/>
                </mxCell>
                <mxCell id="14" value="stereotype property 1" style="text;html=1;strokeColor=none;fillColor=none;align=left;verticalAlign=middle;spacingLeft=4;spacingRight=4;overflow=hidden;rotatable=0;points=[[0,0.5],[1,0.5]];portConstraint=eastwest;" vertex="1" parent="2">
                    <mxGeometry y="70" width="150" height="30" as="geometry"/>
                </mxCell>
                <mxCell id="4" value="stereotype property 1" style="text;html=1;strokeColor=none;fillColor=none;align=left;verticalAlign=middle;spacingLeft=4;spacingRight=4;overflow=hidden;rotatable=0;points=[[0,0.5],[1,0.5]];portConstraint=eastwest;" vertex="1" parent="2">
                    <mxGeometry y="100" width="150" height="30" as="geometry"/>
                </mxCell>
                <mxCell id="26" value="stereotype property 1" style="text;html=1;strokeColor=none;fillColor=none;align=left;verticalAlign=middle;spacingLeft=4;spacingRight=4;overflow=hidden;rotatable=0;points=[[0,0.5],[1,0.5]];portConstraint=eastwest;" vertex="1" parent="2">
                    <mxGeometry y="130" width="150" height="30" as="geometry"/>
                </mxCell>
                <mxCell id="13" value="stereotype property 1" style="text;html=1;strokeColor=none;fillColor=none;align=left;verticalAlign=middle;spacingLeft=4;spacingRight=4;overflow=hidden;rotatable=0;points=[[0,0.5],[1,0.5]];portConstraint=eastwest;" vertex="1" parent="2">
                    <mxGeometry y="160" width="150" height="30" as="geometry"/>
                </mxCell>
                <mxCell id="16" value="+ item: attribute" style="text;strokeColor=none;fillColor=none;align=left;verticalAlign=top;spacingLeft=4;spacingRight=4;overflow=hidden;rotatable=0;points=[[0,0.5],[1,0.5]];portConstraint=eastwest;rounded=0;shadow=0;glass=0;comic=0;sketch=0;" vertex="1" parent="1">
                    <mxGeometry x="160" y="330" width="100" height="26" as="geometry"/>
                </mxCell>
                <mxCell id="19" value="" style="html=1;verticalLabelPosition=bottom;align=center;labelBackgroundColor=#ffffff;verticalAlign=top;strokeWidth=2;strokeColor=#0080F0;shadow=0;dashed=0;shape=mxgraph.ios7.icons.locked;rounded=0;glass=0;comic=0;sketch=0;aspect=fixed;" vertex="1" parent="1">
                    <mxGeometry x="64" y="77" width="10" height="12.5" as="geometry"/>
                </mxCell>
                <mxCell id="27" value="Goal&lt;br&gt;Abstract class" style="swimlane;fontStyle=1;align=center;verticalAlign=middle;childLayout=stackLayout;horizontal=1;startSize=40;horizontalStack=0;resizeParent=1;resizeParentMax=0;resizeLast=0;collapsible=0;marginBottom=0;html=1;" vertex="1" parent="1">
                    <mxGeometry x="310" y="30" width="220" height="190" as="geometry"/>
                </mxCell>
                <mxCell id="28" value="protected string _name" style="text;html=1;align=left;verticalAlign=middle;spacingLeft=4;spacingRight=4;overflow=hidden;rotatable=0;points=[[0,0.5],[1,0.5]];portConstraint=eastwest;noLabel=0;enumerate=0;comic=0;portConstraintRotation=0;rounded=0;glass=0;shadow=0;" vertex="1" parent="27">
                    <mxGeometry y="40" width="220" height="30" as="geometry"/>
                </mxCell>
                <mxCell id="29" value="protected string _description" style="text;html=1;strokeColor=none;fillColor=none;align=left;verticalAlign=middle;spacingLeft=4;spacingRight=4;overflow=hidden;rotatable=0;points=[[0,0.5],[1,0.5]];portConstraint=eastwest;" vertex="1" parent="27">
                    <mxGeometry y="70" width="220" height="30" as="geometry"/>
                </mxCell>
                <mxCell id="30" value="stereotype property 1" style="text;html=1;strokeColor=none;fillColor=none;align=left;verticalAlign=middle;spacingLeft=4;spacingRight=4;overflow=hidden;rotatable=0;points=[[0,0.5],[1,0.5]];portConstraint=eastwest;" vertex="1" parent="27">
                    <mxGeometry y="100" width="220" height="30" as="geometry"/>
                </mxCell>
                <mxCell id="31" value="stereotype property 1" style="text;html=1;strokeColor=none;fillColor=none;align=left;verticalAlign=middle;spacingLeft=4;spacingRight=4;overflow=hidden;rotatable=0;points=[[0,0.5],[1,0.5]];portConstraint=eastwest;" vertex="1" parent="27">
                    <mxGeometry y="130" width="220" height="30" as="geometry"/>
                </mxCell>
                <mxCell id="32" value="stereotype property 1" style="text;html=1;strokeColor=none;fillColor=none;align=left;verticalAlign=middle;spacingLeft=4;spacingRight=4;overflow=hidden;rotatable=0;points=[[0,0.5],[1,0.5]];portConstraint=eastwest;" vertex="1" parent="27">
                    <mxGeometry y="160" width="220" height="30" as="geometry"/>
                </mxCell>
                <mxCell id="35" value="&lt;h2 style=&quot;font-family: &amp;quot;Noto Sans Mono&amp;quot;; margin: 0px; color: rgb(50, 50, 50); text-align: start;&quot;&gt;Polymorphism - Design Activity&lt;/h2&gt;" style="text;strokeColor=none;fillColor=none;html=1;fontSize=24;fontStyle=1;verticalAlign=middle;align=center;rounded=0;shadow=0;glass=0;comic=0;sketch=0;" vertex="1" parent="1">
                    <mxGeometry x="50" y="-40" width="510" height="40" as="geometry"/>
                </mxCell>
            </root>
        </mxGraphModel>
    </diagram>
</mxfile>